<?xml version="1.0" standalone="no"?>
<!DOCTYPE svg PUBLIC "-//W3C//DTD SVG 20010904//EN"
 "http://www.w3.org/TR/2001/REC-SVG-20010904/DTD/svg10.dtd">
<svg version="1.0" xmlns="http://www.w3.org/2000/svg"
 width="512" height="512" viewBox="0 -260.500000 2048.000000 2048.000000"
 preserveAspectRatio="xMidYMid meet">
<metadata>
Created by potrace 1.16, written by Peter Selinger 2001-2019
</metadata>
<g transform="translate(0.000000,1527.000000) scale(0.100000,-0.100000)"
fill="#000000" stroke="none">
<path d="M17260 15066 l0 -206 165 0 c196 0 218 7 235 71 14 51 3 304 -14 318
-6 4 -95 12 -198 15 l-188 8 0 -206z"/>
<path d="M15640 14595 l0 -285 300 0 300 0 0 285 0 285 -300 0 -300 0 0 -285z"/>
<path d="M10080 14679 c-879 -37 -1795 -291 -2570 -714 -831 -453 -1529 -1083
-2052 -1850 -797 -1171 -1120 -2618 -897 -4010 61 -377 164 -765 284 -1070
189 -479 510 -1077 554 -1029 5 5 335 497 734 1094 1315 1969 1528 2285 1537
2285 5 0 64 -79 133 -175 259 -367 1405 -1988 1442 -2040 21 -30 99 -140 172
-245 74 -104 187 -266 251 -358 412 -591 609 -862 647 -890 23 -17 25 -16 43
3 19 21 90 121 562 802 339 489 358 516 923 1313 198 281 520 735 715 1010
354 501 395 555 418 555 31 0 120 -131 1318 -1930 519 -778 950 -1421 958
-1428 14 -11 22 -4 62 51 75 105 151 241 266 472 364 734 532 1396 571 2247
32 709 -72 1408 -307 2058 -269 742 -744 1512 -1263 2045 -486 498 -957 842
-1606 1170 -666 336 -1333 535 -2050 610 -140 15 -541 36 -630 33 -22 -1 -119
-5 -215 -9z"/>
<path d="M13942 14318 l3 -203 194 -3 c110 -1 198 2 205 7 8 7 9 61 3 197 -4
103 -10 190 -13 193 -3 4 -93 7 -200 9 l-194 4 2 -204z"/>
<path d="M14682 13773 l3 -318 120 3 c66 1 209 5 318 8 191 6 197 7 202 28 2
11 7 150 10 309 l6 287 -331 0 -330 0 2 -317z"/>
<path d="M16547 14053 c-10 -9 -9 -591 1 -596 12 -6 577 14 583 21 4 4 10 136
14 295 l7 287 -299 0 c-165 0 -303 -3 -306 -7z"/>
<path d="M15671 13068 c-96 -4 -176 -10 -179 -13 -9 -9 -13 -350 -4 -363 14
-21 115 -30 242 -22 111 7 155 19 172 44 18 26 -2 328 -23 350 -12 13 -9 13
-208 4z"/>
<path d="M7672 8807 c-18 -19 -299 -447 -412 -627 -134 -212 -130 -204 -112
-215 11 -6 194 -11 477 -13 459 -4 665 2 665 19 0 13 -81 139 -303 472 -256
384 -275 407 -315 364z"/>
<path d="M12908 8788 c-47 -51 -182 -242 -377 -537 -130 -196 -178 -278 -171
-285 8 -8 194 -12 591 -14 478 -3 580 -1 573 10 -4 7 -20 31 -34 53 -15 22
-113 175 -217 340 -266 422 -295 465 -316 465 -11 0 -32 -14 -49 -32z"/>
<path d="M12410 7836 c0 -4 58 -98 128 -209 71 -111 164 -258 207 -327 101
-160 195 -290 211 -290 13 0 95 123 184 275 29 50 108 180 176 291 68 110 124
205 124 211 0 14 -81 20 -430 33 -146 5 -340 13 -432 17 -93 3 -168 3 -168 -1z"/>
<path d="M7253 7820 c-19 -8 -21 -13 -14 -32 18 -47 228 -385 405 -652 112
-171 95 -166 170 -45 221 356 420 698 412 707 -8 7 -634 31 -816 31 -74 0
-145 -4 -157 -9z"/>
<path d="M6968 7762 c-36 -43 -595 -871 -604 -897 -5 -13 61 -15 605 -15 336
0 611 3 611 7 0 27 -547 881 -584 912 -10 8 -17 6 -28 -7z"/>
<path d="M8326 7608 c-59 -95 -157 -252 -217 -348 -128 -205 -199 -331 -199
-353 0 -35 37 -39 442 -50 383 -9 708 -3 708 13 0 23 -605 909 -621 910 -3 0
-54 -78 -113 -172z"/>
<path d="M13593 7707 c-55 -78 -406 -641 -469 -752 -26 -48 -34 -69 -26 -77 7
-7 69 -16 139 -21 167 -11 1010 -4 1024 10 9 9 -60 117 -517 795 -44 65 -83
117 -89 117 -5 1 -33 -32 -62 -72z"/>
<path d="M12137 7698 c-66 -90 -383 -542 -489 -697 -55 -80 -75 -118 -68 -125
18 -18 168 -24 590 -24 405 0 581 6 596 21 4 4 -1 22 -11 40 -16 27 -290 457
-495 775 -29 45 -56 82 -61 82 -4 0 -32 -33 -62 -72z"/>
<path d="M11600 6711 c-30 -5 -35 -10 -32 -31 3 -33 104 -198 307 -505 166
-249 236 -345 255 -345 17 0 468 702 517 806 14 28 15 37 4 43 -15 10 -175 18
-581 31 -323 10 -417 11 -470 1z"/>
<path d="M6373 6704 c-13 -3 -23 -8 -23 -11 0 -17 512 -813 566 -882 9 -11 49
42 176 232 151 228 398 622 398 635 0 5 -150 12 -332 15 -183 4 -430 9 -548
11 -118 3 -225 2 -237 0z"/>
<path d="M13147 6702 l-28 -7 281 -420 c155 -231 291 -430 304 -443 l23 -24
45 69 c105 160 145 222 312 489 96 155 177 288 178 295 2 11 -48 16 -252 25
-348 16 -829 25 -863 16z"/>
<path d="M7940 6695 c0 -9 108 -175 344 -530 l239 -359 24 29 c106 127 503
791 503 841 0 7 -36 14 -92 18 -103 7 -1018 9 -1018 1z"/>
<path d="M11358 6588 c-69 -84 -522 -720 -593 -831 -10 -15 -15 -30 -12 -33
31 -31 1172 -33 1203 -1 3 3 -2 20 -12 39 -18 35 -228 376 -297 483 -23 35
-76 117 -117 181 -41 64 -89 137 -106 161 l-31 44 -35 -43z"/>
<path d="M7663 6563 c-75 -91 -110 -143 -521 -753 l-50 -75 526 -3 c561 -3
670 1 679 24 9 24 -557 854 -582 854 -7 0 -31 -21 -52 -47z"/>
<path d="M9192 6568 c-16 -24 -103 -162 -194 -308 -90 -146 -190 -305 -221
-355 -70 -111 -92 -153 -85 -161 17 -16 1162 -43 1201 -28 25 9 21 21 -26 77
-44 52 -95 120 -369 487 -163 218 -254 330 -268 330 -5 0 -22 -19 -38 -42z"/>
<path d="M12862 6552 c-61 -74 -182 -246 -396 -567 l-167 -250 58 -6 c197 -21
1107 -18 1129 4 8 8 -20 58 -144 257 -222 353 -402 620 -419 620 -7 0 -34 -26
-61 -58z"/>
<path d="M6158 6563 c-41 -45 -185 -243 -325 -448 -222 -326 -273 -402 -273
-410 0 -9 1148 0 1177 10 31 10 34 6 -141 287 -125 201 -392 588 -406 588 -3
0 -18 -12 -32 -27z"/>
<path d="M14313 6443 c-111 -165 -298 -459 -362 -571 -51 -87 -62 -136 -35
-146 35 -14 519 -28 804 -23 267 4 330 9 330 26 0 11 -162 251 -300 445 -188
262 -303 410 -321 414 -12 2 -47 -41 -116 -145z"/>
<path d="M8958 5580 c-108 -4 -201 -11 -207 -15 -35 -21 17 -111 226 -389 206
-273 442 -581 472 -616 l31 -35 19 25 c77 97 416 680 512 878 44 91 44 112 1
140 -23 15 -67 17 -441 18 -229 1 -505 -2 -613 -6z"/>
<path d="M10689 5582 c-31 -4 -64 -14 -74 -22 -44 -36 10 -164 217 -510 109
-181 314 -509 327 -523 5 -5 40 31 78 80 190 238 683 927 683 952 0 5 -15 12
-32 15 -45 9 -1130 16 -1199 8z"/>
<path d="M7247 5553 c-91 -2 -147 -7 -145 -13 3 -11 294 -422 514 -729 90
-125 147 -196 158 -196 29 0 576 911 561 934 -6 10 -669 12 -1088 4z"/>
<path d="M12428 5553 c-82 -2 -148 -6 -148 -9 0 -15 410 -670 509 -814 70
-102 84 -120 93 -120 11 0 190 255 449 640 148 220 191 289 184 300 -6 9 -696
11 -1087 3z"/>
<path d="M5633 5523 l-123 -4 24 -37 c13 -20 79 -122 148 -227 315 -479 364
-554 406 -619 l44 -70 29 35 c30 34 281 409 355 527 21 35 56 91 78 125 125
201 158 261 149 271 -6 6 -863 5 -1110 -1z"/>
<path d="M13900 5515 c0 -50 579 -953 602 -939 9 6 157 228 342 514 37 58 115
177 173 265 l105 160 -139 6 c-76 4 -351 7 -610 8 -421 1 -473 -1 -473 -14z"/>
<path d="M12129 5488 c-9 -7 -43 -47 -76 -88 -85 -106 -572 -755 -622 -828
l-41 -62 27 -7 c37 -10 1016 -9 1166 1 114 8 117 9 117 32 0 33 -65 154 -241
446 -83 139 -181 305 -216 368 -76 137 -92 156 -114 138z"/>
<path d="M8397 5333 c-153 -234 -485 -798 -475 -808 21 -21 1303 -33 1324 -12
9 9 -7 32 -250 357 -331 444 -469 620 -488 620 -4 0 -54 -71 -111 -157z"/>
<path d="M13660 5448 c-206 -279 -629 -912 -617 -924 20 -20 145 -26 679 -31
328 -3 604 -3 613 1 13 5 10 15 -21 63 -254 400 -607 923 -624 923 -3 0 -17
-14 -30 -32z"/>
<path d="M5259 5313 c-51 -76 -116 -172 -144 -213 -157 -227 -398 -595 -399
-609 -1 -15 56 -16 631 -16 347 0 634 3 638 7 4 3 -2 19 -13 35 -11 15 -69
105 -130 198 -144 224 -483 735 -487 735 -2 0 -45 -62 -96 -137z"/>
<path d="M6890 5403 c-69 -79 -597 -880 -586 -890 20 -20 1211 -25 1279 -5
l29 8 -149 224 c-165 248 -382 563 -450 653 -26 33 -52 57 -63 57 -10 0 -37
-21 -60 -47z"/>
<path d="M15083 5163 c-326 -493 -433 -666 -420 -680 10 -10 1277 -17 1277 -7
0 8 -519 789 -599 902 -28 39 -55 72 -60 72 -4 0 -94 -129 -198 -287z"/>
<path d="M10134 5273 c-23 -38 -99 -162 -169 -278 -71 -115 -166 -274 -211
-352 -73 -126 -81 -143 -67 -155 13 -10 137 -14 602 -16 322 -2 604 1 626 6
33 7 40 12 38 30 -4 30 -371 630 -453 740 -21 27 -44 47 -55 47 -12 0 -36 -25
-68 -73 -58 -85 -54 -86 -134 36 -30 45 -58 82 -61 82 -4 0 -26 -30 -48 -67z"/>
<path d="M6407 4320 c-48 -4 -90 -10 -94 -14 -8 -8 6 -32 102 -181 39 -60 93
-145 121 -188 88 -139 336 -511 359 -539 12 -14 27 -23 32 -20 22 15 653 930
653 948 0 7 -1079 2 -1173 -6z"/>
<path d="M7990 4326 c0 -3 33 -49 73 -103 41 -54 156 -217 257 -363 215 -311
359 -510 367 -510 9 0 22 19 147 205 118 178 175 265 345 530 57 88 114 176
127 196 13 19 24 38 24 42 0 4 -301 7 -670 7 -368 0 -670 -2 -670 -4z"/>
<path d="M11388 4323 c-43 -2 -78 -7 -78 -12 0 -10 389 -598 498 -753 44 -62
98 -133 119 -158 l39 -44 129 185 c70 101 160 230 199 287 39 57 124 177 188
268 139 195 144 202 129 217 -11 11 -1045 19 -1223 10z"/>
<path d="M13074 4315 c13 -36 569 -852 619 -910 l33 -39 64 90 c78 110 473
706 524 792 21 35 35 66 31 70 -4 4 -293 9 -642 10 -589 4 -635 3 -629 -13z"/>
<path d="M9753 4291 c-40 -4 -75 -10 -78 -13 -7 -6 343 -535 485 -733 119
-167 159 -217 170 -210 31 19 656 943 645 953 -9 9 -1131 11 -1222 3z"/>
<path d="M4715 4260 c-9 -15 31 -82 249 -415 130 -198 192 -294 276 -427 34
-54 65 -98 70 -98 9 0 72 84 172 230 65 95 458 684 472 708 6 9 -120 12 -613
12 -394 0 -622 -4 -626 -10z"/>
<path d="M14690 4264 c0 -6 589 -885 619 -923 10 -13 23 -21 28 -18 9 6 70 97
468 700 l163 247 -639 0 c-351 0 -639 -3 -639 -6z"/>
<path d="M6114 4198 c-26 -28 -122 -162 -235 -328 -165 -242 -389 -578 -395
-594 -6 -15 50 -16 645 -16 358 0 651 2 651 4 0 6 -295 460 -447 688 -69 104
-142 206 -162 229 l-36 41 -21 -24z"/>
<path d="M14493 4198 c-63 -69 -613 -880 -613 -903 0 -7 8 -16 18 -20 25 -11
798 -19 1037 -10 167 6 205 10 205 21 0 8 -19 45 -42 82 -109 174 -537 801
-577 845 -4 4 -17 -3 -28 -15z"/>
<path d="M11124 4178 c-55 -58 -173 -224 -407 -573 l-228 -340 647 -3 c356 -1
649 0 651 2 3 2 -1 15 -8 28 -28 52 -559 846 -590 881 l-34 38 -31 -33z"/>
<path d="M16105 4196 c-66 -92 -625 -936 -625 -944 0 -6 68 -13 176 -17 210
-9 1090 -2 1101 8 9 10 -2 29 -205 337 -208 317 -423 630 -431 630 -3 0 -11
-6 -16 -14z"/>
<path d="M9414 4128 c-84 -116 -554 -824 -554 -836 0 -6 12 -15 28 -19 43 -13
1219 -10 1231 2 20 20 -530 826 -611 898 -32 27 -45 21 -94 -45z"/>
<path d="M4462 4128 c-21 -29 -137 -197 -257 -373 -120 -176 -247 -361 -282
-412 -34 -51 -63 -97 -63 -103 0 -7 175 -10 548 -9 565 1 713 6 732 25 13 13
12 14 -108 198 -236 362 -433 656 -461 689 -18 20 -41 37 -52 37 -11 0 -34
-22 -57 -52z"/>
<path d="M8853 3087 c3 -7 74 -114 158 -237 84 -124 193 -283 242 -355 49 -71
113 -167 143 -211 31 -45 71 -98 90 -119 29 -32 36 -36 50 -24 32 26 614 913
614 935 0 14 -347 24 -884 24 -336 0 -417 -3 -413 -13z"/>
<path d="M5522 3081 l-44 -6 193 -290 c216 -327 358 -529 416 -594 l39 -45
101 145 c218 313 526 780 519 787 -9 9 -1164 12 -1224 3z"/>
<path d="M10500 3078 c0 -21 80 -150 274 -443 197 -297 333 -485 351 -485 18
0 100 115 383 537 140 211 252 386 248 390 -4 5 -289 10 -632 11 -525 3 -624
2 -624 -10z"/>
<path d="M13972 3081 l-83 -6 237 -355 c314 -470 381 -560 422 -560 4 0 34 35
65 79 60 84 355 524 423 631 100 158 124 198 124 209 0 8 -144 11 -552 9 -304
-1 -590 -4 -636 -7z"/>
<path d="M3863 3047 c15 -39 581 -889 610 -916 14 -13 31 -20 37 -16 50 31
620 887 620 932 0 11 -114 13 -636 13 -511 0 -635 -3 -631 -13z"/>
<path d="M15519 3038 c21 -55 594 -937 619 -952 4 -2 26 23 49 57 270 405 593
899 593 907 0 7 -219 10 -635 10 l-635 0 9 -22z"/>
<path d="M15271 2947 c-25 -34 -151 -222 -281 -417 -333 -501 -315 -470 -282
-486 20 -10 1101 -18 1177 -9 80 9 83 14 45 82 -81 144 -584 883 -605 889 -6
2 -30 -25 -54 -59z"/>
<path d="M10252 2918 c-145 -201 -582 -854 -582 -869 0 -5 10 -11 23 -14 12
-3 307 -4 654 -3 l633 3 -88 140 c-177 283 -544 814 -568 822 -7 2 -39 -33
-72 -79z"/>
<path d="M5278 2962 c-12 -16 -45 -61 -73 -100 -27 -40 -74 -107 -104 -150
-30 -42 -142 -207 -249 -366 -176 -263 -192 -290 -175 -300 21 -13 1266 -16
1279 -4 9 10 -59 121 -285 463 -254 385 -329 485 -364 485 -3 0 -16 -13 -29
-28z"/>
<path d="M3593 2848 c-81 -112 -119 -166 -250 -353 -216 -309 -296 -436 -285
-447 10 -10 147 -13 620 -13 334 0 615 3 624 7 16 7 15 12 -13 60 -99 169
-567 843 -599 863 -5 3 -49 -50 -97 -117z"/>
<path d="M16906 2918 c-38 -40 -578 -836 -592 -873 -5 -13 68 -15 645 -15 358
0 651 2 651 4 0 4 -65 101 -328 486 -165 242 -296 421 -315 431 -16 9 -26 4
-61 -33z"/>
<path d="M14692 1882 c10 -36 626 -964 644 -969 12 -4 85 97 292 407 234 352
345 529 330 530 -86 6 -739 31 -933 35 -148 3 -285 8 -304 11 -30 5 -33 3 -29
-14z"/>
<path d="M4960 1883 c-157 -2 -291 -5 -298 -8 -8 -3 74 -135 237 -377 265
-396 394 -578 411 -578 9 0 344 498 465 691 114 183 154 254 145 263 -10 10
-494 15 -960 9z"/>
<path d="M9672 1869 c9 -13 47 -71 84 -129 186 -287 533 -807 547 -818 9 -8
21 -11 26 -7 19 11 591 878 607 918 8 22 -19 24 -456 37 -206 5 -476 13 -600
17 l-225 6 17 -24z"/>
<path d="M3252 1853 c-166 -3 -213 -6 -209 -16 2 -7 49 -80 102 -162 54 -83
123 -188 153 -235 31 -47 97 -148 147 -225 50 -77 119 -184 154 -237 35 -54
67 -95 72 -92 5 3 58 74 117 157 285 400 522 761 522 792 0 7 -21 15 -46 19
-44 6 -532 5 -1012 -1z"/>
<path d="M16353 1854 c-13 -3 -23 -9 -23 -13 0 -44 552 -848 626 -913 19 -17
23 -12 148 170 375 549 507 744 503 748 -6 6 -1229 14 -1254 8z"/>
<path d="M4409 1690 c-46 -66 -145 -207 -219 -313 -240 -339 -423 -608 -418
-613 10 -9 1243 29 1346 42 23 3 42 9 42 15 0 25 -423 664 -598 902 -35 48
-65 87 -66 87 -2 0 -41 -54 -87 -120z"/>
<path d="M16099 1737 c-175 -233 -609 -880 -609 -907 0 -10 8 -21 17 -24 36
-14 333 -25 838 -32 l530 -7 -15 21 c-8 12 -33 47 -55 79 -56 81 -396 570
-448 645 -25 35 -78 112 -119 173 -41 60 -79 110 -84 112 -5 1 -30 -26 -55
-60z"/>
<path d="M2827 1738 c-57 -71 -575 -790 -689 -958 -33 -48 -36 -56 -21 -64 20
-11 818 -1 1098 14 216 12 295 24 295 46 0 29 -33 84 -295 489 -126 196 -328
495 -340 505 -10 8 -21 1 -48 -32z"/>
<path d="M17727 1733 c-19 -27 -71 -104 -115 -173 -152 -237 -210 -325 -294
-455 -156 -241 -221 -346 -217 -350 13 -12 351 -27 804 -35 648 -12 635 -12
635 -2 0 5 -42 68 -92 140 -51 73 -142 203 -203 289 -257 367 -456 633 -475
633 -4 0 -24 -21 -43 -47z"/>
</g>
</svg>
